<?xml version="1.0" encoding="UTF-8" standalone="no"?>
<!-- Created with Inkscape (http://www.inkscape.org/) -->

<svg
   version="1.1"
   id="svg1"
   width="512"
   height="512"
   viewBox="0 0 512 512"
   xmlns="http://www.w3.org/2000/svg"
   xmlns:svg="http://www.w3.org/2000/svg">
  <defs
     id="defs1" />
  <g
     id="g1">
    <path
       style="fill:#000000"
       d="M 196.02208,462.5 150.96629,440 h -11.36182 -11.36183 l -1.18891,2.87028 c -0.6539,1.57865 -2.30467,3.37865 -3.66837,4 C 121.66138,447.65578 107.36126,448 76.452947,448 H 32 v -8 -8 H 56 80 V 376 320 H 56 32 v -8 -8 h 44.452947 c 30.908313,0 45.208433,0.34422 46.932413,1.12972 1.3637,0.62135 3.01447,2.42135 3.66837,4 L 128.24264,312 h 40.42834 c 33.1769,0 40.91269,0.25708 43.12868,1.43326 1.48519,0.78829 12.5965,11.36329 24.69182,23.5 C 249.689,350.17595 259.24008,359 260.37635,359 c 1.04136,0 36.82249,-6.075 79.5136,-13.5 42.69112,-7.425 79.64293,-13.49749 82.11513,-13.49442 7.74849,0.01 12.10621,1.82579 17.64529,7.35408 8.8172,8.80003 10.48785,20.01895 4.60065,30.89467 -1.41547,2.61488 -3.96351,5.80237 -5.66231,7.0833 -4.04002,3.04629 -178.11012,104.55815 -182.30659,106.31512 -1.76984,0.74099 -5.91482,1.34725 -9.21107,1.34725 -5.81169,0 -7.35767,-0.6814 -51.04897,-22.5 z m 142.01036,-44.04191 c 48.65716,-28.34805 89.70506,-52.88015 91.21756,-54.51578 3.58325,-3.87495 3.67863,-8.68524 0.25295,-12.75644 -1.37338,-1.63216 -3.61177,-3.24735 -4.9742,-3.5893 -1.95723,-0.49123 -121.80688,19.57551 -146.30313,24.49592 l -5.27437,1.05943 4.67722,5.17404 c 6.95275,7.69128 9.86911,14.58691 9.80095,23.17404 -0.13605,17.14245 -12.75578,29.75788 -29.92942,29.91922 -12.22187,0.11482 -15.40616,-2.01826 -40.94756,-27.42973 L 194.5,382.04922 l 5.75117,-5.76491 5.75118,-5.76492 21.74882,21.63424 c 11.96186,11.89883 22.73175,22.13197 23.93309,22.7403 5.86473,2.96979 14.54144,0.0644 18.32114,-6.13479 2.18995,-3.5918 2.60452,-9.68501 0.88959,-13.07488 -0.60776,-1.20134 -15.7927,-16.92176 -33.74432,-34.93426 L 204.51136,328 H 166.25568 128 v 48 48 h 12.48349 12.4835 l 46.05461,23 c 25.33004,12.65 47.06456,23 48.29895,23 1.23438,0 42.05473,-23.19386 90.71189,-51.54191 z M 112,376 v -56 h -8 -8 v 56 56 h 8 8 z m 243.66991,-52.88258 c -3.20655,-2.13192 -5.86076,-4.19417 -5.89824,-4.58278 -0.0375,-0.38861 1.44905,-3.32293 3.30341,-6.52071 l 3.37156,-5.81415 6.77668,3.41268 c 3.72717,1.87698 6.77668,3.65196 6.77668,3.94441 0,0.94181 -7.40694,13.44324 -7.96299,13.43995 -0.29536,-0.002 -3.16055,-1.74748 -6.3671,-3.8794 z M 252.5,302.83341 c -1.94197,-1.07369 -10.3002,-8.93114 -34.88612,-32.79592 -14.47535,-14.05076 -17.03134,-18.55054 -17.06535,-30.04326 -0.027,-9.12818 3.22653,-16.75141 9.61124,-22.51961 6.85343,-6.19166 13.99116,-8.9136 23.4602,-8.94645 7.40904,-0.0257 8.74422,0.29212 15.25,3.63001 l 7.13003,3.65818 7.13003,-3.65818 c 6.50578,-3.33789 7.84096,-3.65571 15.25,-3.63001 6.60759,0.0229 9.16672,0.51373 13.73998,2.63516 12.61429,5.85149 19.26011,15.78566 19.29131,28.83667 0.0274,11.46622 -2.51638,15.95423 -17.0252,30.03749 -37.70293,36.59706 -36.58881,35.72473 -41.88612,32.79592 z m 22.45826,-35.72084 c 9.97288,-9.56308 18.83718,-18.7501 19.69844,-20.4156 2.0898,-4.04122 1.33329,-11.49791 -1.58185,-15.59185 -4.59554,-6.45384 -15.31534,-9.07516 -22.37451,-5.47125 -1.76019,0.89862 -5.10279,3.37362 -7.428,5.5 C 260.30242,233.84982 258.13889,235 256,235 c -2.13889,0 -4.30242,-1.15018 -7.27234,-3.86613 C 242.99488,225.89132 238.96035,224 233.50982,224 c -11.38839,0 -19.59129,9.91944 -17.1093,20.6896 0.43673,1.89508 6.90934,8.91205 19.87357,21.54495 10.57425,10.304 19.52421,18.629 19.88879,18.5 0.36458,-0.129 8.82251,-8.05889 18.79538,-17.62198 z M 133.57009,292.75 c -3.22202,-11.38505 -3.67757,-10.2533 4.80663,-11.9415 l 7.51717,-1.49578 2.01037,6.58632 c 1.10571,3.62248 1.69208,6.85186 1.30306,7.1764 C 148.28637,293.84373 137.08803,298 135.93895,298 c -0.48569,0 -1.55168,-2.3625 -2.36886,-5.25 z m 235.80897,1.58469 -7.12094,-2.41532 2.0149,-6.70968 c 1.10819,-3.69033 2.13136,-6.85344 2.27372,-7.02914 0.45541,-0.56208 12.91785,2.05755 13.86267,2.91395 0.87204,0.79044 -1.94933,13.66753 -3.29318,15.0305 -0.33893,0.34375 -3.82065,-0.46189 -7.73717,-1.79031 z M 128,257.14246 V 249 h 8 8 v 7.5 c 0,6.63546 -0.21364,7.5 -1.85331,7.5 -1.01932,0 -4.61932,0.28911 -8,0.64246 L 128,265.28491 Z m 240,-1.54097 v -7.39851 l 6.94088,-0.69704 c 3.81749,-0.38338 7.41749,-0.40249 8,-0.0425 C 383.53284,247.82929 384,251.40013 384,255.559 V 263 h -8 -8 z M 138,232.78753 c -3.025,-0.53619 -5.89111,-1.34634 -6.36914,-1.80035 -0.8154,-0.77442 0.60756,-8.67487 2.46458,-13.68364 l 0.81434,-2.19645 7.39386,2.48596 7.39386,2.48597 -2.04979,6.96049 c -1.12739,3.82827 -2.52182,6.90703 -3.09875,6.84169 -0.57693,-0.0653 -3.52396,-0.55749 -6.54896,-1.09367 z m 226.09574,-6.68657 c -1.10571,-3.62248 -1.69208,-6.87154 -1.30306,-7.22015 C 363.66204,218.10178 374.73322,214 375.96655,214 c 0.78929,0 2.66584,5.41359 4.54022,13.09786 0.61843,2.53536 0.45283,2.63385 -6.88349,4.09364 l -7.51717,1.49578 z M 387,204 l -3.69278,-4 -40.40361,0.0377 -40.40361,0.0378 -24.61219,-25.0872 -24.61219,-25.08719 -81.38781,14.1823 C 95.648291,177.36859 90.156697,178.19504 85.072819,177.14849 74.799046,175.03356 67.164542,167.5628 64.889847,157.39839 62.668537,147.47253 66.832123,136.92531 75.218565,131.23363 87.175304,123.11887 254.38534,26.889261 258.39011,25.818148 c 8.20073,-2.19336 12.15616,-0.616676 59.20515,23.599913 L 361.46839,72 h 11.18635 11.18635 l 0.66074,-3.008317 c 0.3634,-1.654574 1.49457,-3.454574 2.51371,-4 C 388.16273,64.377726 406.22421,64 434.43426,64 H 480 v 8 8 h -24 -24 v 56 56 h 24 24 v 8 8 h -44.65361 -44.65361 z m 29,-68 V 80 h -8 -8 v 56 56 h 8 8 z m -32,0 V 88 H 372.20145 360.40289 L 347.45145,81.169083 C 307.1582,59.917417 266.99785,40 264.44044,40 261.01238,40 83.85093,142.94704 81.49799,146.30633 80.674096,147.48261 80,150.1795 80,152.29943 c 0,5.11071 4.331079,9.6958 9.173077,9.71105 3.222601,0.0102 148.916043,-24.93788 149.732483,-25.63966 0.22306,-0.19174 -1.93959,-2.82826 -4.80589,-5.85895 -7.18851,-7.60079 -9.50486,-13.09803 -9.48574,-22.51187 0.0239,-11.750576 5.3886,-20.916131 15.53052,-26.533622 C 244.96864,78.794313 246.39295,78.5 254.5,78.5 c 12.91988,0 14.74568,1.225317 41.04735,27.54739 l 21.90982,21.9268 -5.45725,5.52589 -5.45725,5.52589 -21.52134,-21.40692 c -11.83673,-11.7738 -22.50425,-21.904648 -23.70559,-22.512984 -3.46926,-1.756768 -10.46007,-1.315446 -14.07488,0.888532 -6.84094,4.170972 -9.41358,13.975712 -5.38036,20.505402 1.01916,1.65 16.13574,17.5125 33.59239,35.25 L 307.19227,184 H 345.59614 384 Z m -235.25,66.38452 c -3.7125,-1.87666 -6.74884,-3.74339 -6.74743,-4.14831 0.002,-0.64631 6.61764,-12.10991 7.57303,-13.12308 0.20064,-0.21278 3.27703,1.51052 6.83642,3.82955 l 6.4716,4.21641 -2.81151,4.67046 c -1.54633,2.56875 -3.20764,5.41219 -3.69181,6.31876 -0.78356,1.46716 -1.62211,1.27332 -7.6303,-1.76379 z"
       id="path1" />
  </g>
</svg>
