<svg width="512" height="512" xmlns="http://www.w3.org/2000/svg"><path style="fill:#000" d="M196.022 462.5 150.966 440h-22.723l-1.19 2.87c-.653 1.579-2.304 3.379-3.668 4-1.724.786-16.024 1.13-46.932 1.13H32v-16h48V320H32v-16h44.453c30.908 0 45.208.344 46.932 1.13 1.364.621 3.015 2.421 3.669 4l1.189 2.87h40.428c33.177 0 40.913.257 43.129 1.433 1.485.789 12.596 11.364 24.691 23.5C249.69 350.176 259.241 359 260.376 359c1.042 0 36.823-6.075 79.514-13.5 42.691-7.425 79.643-13.497 82.115-13.494 7.749.01 12.106 1.825 17.645 7.354 8.818 8.8 10.488 20.019 4.601 30.894-1.415 2.615-3.963 5.803-5.662 7.084-4.04 3.046-178.11 104.558-182.307 106.315-1.77.74-5.915 1.347-9.211 1.347-5.812 0-7.358-.681-51.049-22.5zm142.01-44.042c48.658-28.348 89.705-52.88 91.218-54.516 3.583-3.875 3.679-8.685.253-12.756-1.373-1.632-3.612-3.247-4.974-3.59-1.957-.49-121.807 19.576-146.303 24.496l-5.275 1.06 4.677 5.174c6.953 7.691 9.87 14.587 9.801 23.174-.136 17.142-12.755 29.758-29.929 29.92-12.222.114-15.406-2.019-40.948-27.43L194.5 382.05l5.751-5.766 5.751-5.765 21.75 21.635c11.961 11.898 22.73 22.132 23.932 22.74 5.865 2.97 14.542.064 18.321-6.135 2.19-3.592 2.605-9.685.89-13.075-.608-1.201-15.793-16.922-33.744-34.934L204.51 328H128v96h24.967l46.055 23c25.33 12.65 47.064 23 48.299 23 1.234 0 42.054-23.194 90.711-51.542zM112 376v-56H96v112h16zm243.67-52.883c-3.207-2.132-5.86-4.194-5.898-4.582-.038-.389 1.449-3.323 3.303-6.521l3.372-5.814 6.776 3.412c3.727 1.877 6.777 3.652 6.777 3.945 0 .942-7.407 13.443-7.963 13.44-.295-.002-3.16-1.748-6.367-3.88zM252.5 302.833c-1.942-1.073-10.3-8.93-34.886-32.796-14.475-14.05-17.031-18.55-17.065-30.043-.027-9.128 3.226-16.751 9.61-22.52 6.854-6.191 13.992-8.913 23.461-8.946 7.409-.026 8.744.292 15.25 3.63l7.13 3.658 7.13-3.658c6.506-3.338 7.841-3.656 15.25-3.63 6.608.023 9.167.514 13.74 2.635 12.614 5.852 19.26 15.786 19.291 28.837.028 11.466-2.516 15.954-17.025 30.037-37.703 36.598-36.589 35.725-41.886 32.796zm22.458-35.72c9.973-9.564 18.837-18.75 19.699-20.416 2.09-4.041 1.333-11.498-1.582-15.592-4.596-6.454-15.315-9.075-22.375-5.471-1.76.898-5.102 3.373-7.428 5.5C260.302 233.85 258.14 235 256 235c-2.139 0-4.302-1.15-7.272-3.866-5.733-5.243-9.768-7.134-15.218-7.134-11.389 0-19.591 9.92-17.11 20.69.437 1.895 6.91 8.912 19.874 21.545 10.574 10.304 19.524 18.629 19.889 18.5.364-.13 8.822-8.06 18.795-17.622zM133.57 292.75c-3.222-11.385-3.677-10.253 4.807-11.941l7.517-1.496 2.01 6.586c1.106 3.623 1.692 6.852 1.303 7.176-.92.769-12.119 4.925-13.268 4.925-.486 0-1.552-2.362-2.369-5.25zm235.81 1.585-7.122-2.416 2.015-6.71c1.108-3.69 2.131-6.853 2.274-7.028.455-.563 12.918 2.057 13.862 2.914.872.79-1.949 13.667-3.293 15.03-.339.344-3.82-.462-7.737-1.79zM128 257.142V249h16v7.5c0 6.635-.214 7.5-1.853 7.5-1.02 0-4.62.29-8 .642l-6.147.643Zm240-1.54v-7.399l6.94-.697c3.818-.383 7.418-.403 8-.043.593.366 1.06 3.937 1.06 8.096V263h-16zm-230-22.814c-3.025-.537-5.891-1.347-6.37-1.8-.815-.775.608-8.676 2.465-13.684l.815-2.197 7.394 2.486 7.393 2.486-2.05 6.96c-1.127 3.829-2.521 6.908-3.098 6.842-.577-.065-3.524-.557-6.549-1.093zm226.096-6.687c-1.106-3.623-1.692-6.872-1.303-7.22.869-.78 11.94-4.881 13.174-4.881.789 0 2.665 5.414 4.54 13.098.618 2.535.453 2.634-6.884 4.093l-7.517 1.496zM387 204l-3.693-4-40.403.038-40.404.037-24.612-25.087-24.612-25.087-81.388 14.182c-76.24 13.286-81.731 14.112-86.815 13.065-10.274-2.114-17.908-9.585-20.183-19.75-2.221-9.925 1.942-20.473 10.329-26.164C87.175 123.119 254.385 26.889 258.39 25.818c8.2-2.193 12.156-.617 59.205 23.6L361.468 72H383.841l.66-3.008c.364-1.655 1.495-3.455 2.515-4 1.147-.614 19.208-.992 47.418-.992H480v16h-48v112h48v16h-89.307zm29-68V80h-16v112h16zm-32 0V88h-23.597l-12.952-6.83C307.158 59.916 266.998 40 264.441 40c-3.429 0-180.59 102.947-182.943 106.306C80.674 147.483 80 150.18 80 152.3c0 5.111 4.331 9.696 9.173 9.711 3.223.01 148.916-24.937 149.733-25.64.223-.19-1.94-2.827-4.806-5.858-7.189-7.6-9.505-13.098-9.486-22.512.024-11.75 5.389-20.916 15.53-26.534 4.825-2.672 6.249-2.966 14.356-2.966 12.92 0 14.746 1.225 41.047 27.547l21.91 21.927L312 133.5l-5.457 5.526-21.522-21.407c-11.836-11.774-22.504-21.905-23.705-22.513-3.47-1.757-10.46-1.315-14.075.889-6.841 4.17-9.414 13.975-5.38 20.505 1.019 1.65 16.135 17.512 33.592 35.25l31.74 32.25H384Zm-235.25 66.385c-3.712-1.877-6.749-3.744-6.747-4.149.002-.646 6.617-12.11 7.573-13.123.2-.213 3.277 1.51 6.836 3.83l6.472 4.216-2.812 4.67c-1.546 2.57-3.208 5.413-3.692 6.32-.783 1.466-1.622 1.273-7.63-1.764z"/></svg>