<?xml version="1.0" encoding="UTF-8" standalone="no"?>
<svg
   width="448"
   height="459.89502"
   version="1.1"
   id="svg1"
   xmlns="http://www.w3.org/2000/svg"
   xmlns:svg="http://www.w3.org/2000/svg">
  <defs
     id="defs1" />
  <path
     style="fill:#000000"
     d="m 220.5,277.72803 c -1.942,-1.073 -10.3,-8.93 -34.886,-32.796 -14.475,-14.05 -17.031,-18.55 -17.065,-30.043 -0.027,-9.128 3.226,-16.751 9.61,-22.52 6.854,-6.191 13.992,-8.913 23.461,-8.946 7.409,-0.026 8.744,0.292 15.25,3.63 l 7.13,3.658 7.13,-3.658 c 6.506,-3.338 7.841,-3.656 15.25,-3.63 6.608,0.023 9.167,0.514 13.74,2.635 12.614,5.852 19.26,15.786 19.291,28.837 0.028,11.466 -2.516,15.954 -17.025,30.037 -37.703,36.598 -36.589,35.725 -41.886,32.796 z m 22.458,-35.72 c 9.973,-9.564 18.837,-18.75 19.699,-20.416 2.09,-4.041 1.333,-11.498 -1.582,-15.592 -4.596,-6.454 -15.315,-9.075 -22.375,-5.471 -1.76,0.898 -5.102,3.373 -7.428,5.5 -2.97,2.716 -5.132,3.866 -7.272,3.866 -2.139,0 -4.302,-1.15 -7.272,-3.866 -5.733,-5.243 -9.768,-7.134 -15.218,-7.134 -11.389,0 -19.591,9.92 -17.11,20.69 0.437,1.895 6.91,8.912 19.874,21.545 10.574,10.304 19.524,18.629 19.889,18.5 0.364,-0.13 8.822,-8.06 18.795,-17.622 z"
     id="heart" />
  <path
     id="path1"
     style="fill:#000000"
     d="m 164.022,437.39503 -45.056,-22.5 H 96.243 l -1.19,2.87 c -0.653,1.579 -2.304,3.379 -3.668,4 -1.724,0.786 -16.024,1.13 -46.932,1.13 H 0 v -16 h 48 v -112 H 0 v -16 h 44.453 c 30.908,0 45.208,0.344 46.932,1.13 1.364,0.621 3.015,2.421 3.669,4 l 1.189,2.87 h 40.428 c 33.177,0 40.913,0.257 43.129,1.433 1.485,0.789 12.596,11.364 24.691,23.5 13.199,13.243 22.75,22.067 23.885,22.067 1.042,0 36.823,-6.075 79.514,-13.5 42.691,-7.425 79.643,-13.497 82.115,-13.494 7.749,0.01 12.106,1.825 17.645,7.354 8.818,8.8 10.488,20.019 4.601,30.894 -1.415,2.615 -3.963,5.803 -5.662,7.084 -4.04,3.046 -178.11,104.558 -182.307,106.315 -1.77,0.74 -5.915,1.347 -9.211,1.347 -5.812,0 -7.358,-0.681 -51.049,-22.5 z m 142.01,-44.042 c 48.658,-28.348 89.705,-52.88 91.218,-54.516 3.583,-3.875 3.679,-8.685 0.253,-12.756 -1.373,-1.632 -3.612,-3.247 -4.974,-3.59 -1.957,-0.49 -121.807,19.576 -146.303,24.496 l -5.275,1.06 4.677,5.174 c 6.953,7.691 9.87,14.587 9.801,23.174 -0.136,17.142 -12.755,29.758 -29.929,29.92 -12.222,0.114 -15.406,-2.019 -40.948,-27.43 l -22.052,-21.94 5.751,-5.766 5.751,-5.765 21.75,21.635 c 11.961,11.898 22.73,22.132 23.932,22.74 5.865,2.97 14.542,0.064 18.321,-6.135 2.19,-3.592 2.605,-9.685 0.89,-13.075 -0.608,-1.201 -15.793,-16.922 -33.744,-34.934 l -32.641,-32.75 H 96 v 96 h 24.967 l 46.055,23 c 25.33,12.65 47.064,23 48.299,23 1.234,0 42.054,-23.194 90.711,-51.542 z M 80,350.89503 v -56 H 64 v 112 h 16 z m 243.67,-52.883 c -3.207,-2.132 -5.86,-4.194 -5.898,-4.582 -0.038,-0.389 1.449,-3.323 3.303,-6.521 l 3.372,-5.814 6.776,3.412 c 3.727,1.877 6.777,3.652 6.777,3.945 0,0.942 -7.407,13.443 -7.963,13.44 -0.295,-0.002 -3.16,-1.748 -6.367,-3.88 z m -222.1,-30.367 c -3.222,-11.385 -3.677,-10.253 4.807,-11.941 l 7.517,-1.496 2.01,6.586 c 1.106,3.623 1.692,6.852 1.303,7.176 -0.92,0.769 -12.119,4.925 -13.268,4.925 -0.486,0 -1.552,-2.362 -2.369,-5.25 z m 235.81,1.585 -7.122,-2.416 2.015,-6.71 c 1.108,-3.69 2.131,-6.853 2.274,-7.028 0.455,-0.563 12.918,2.057 13.862,2.914 0.872,0.79 -1.949,13.667 -3.293,15.03 -0.339,0.344 -3.82,-0.462 -7.737,-1.79 z M 96,232.03703 v -8.142 h 16 v 7.5 c 0,6.635 -0.214,7.5 -1.853,7.5 -1.02,0 -4.62,0.29 -8,0.642 l -6.147,0.643 z m 240,-1.54 v -7.399 l 6.94,-0.697 c 3.818,-0.383 7.418,-0.403 8,-0.043 0.593,0.366 1.06,3.937 1.06,8.096 v 7.441 h -16 z m -230,-22.814 c -3.025,-0.537 -5.891,-1.347 -6.37,-1.8 -0.815,-0.775 0.608,-8.676 2.465,-13.684 l 0.815,-2.197 7.394,2.486 7.393,2.486 -2.05,6.96 c -1.127,3.829 -2.521,6.908 -3.098,6.842 -0.577,-0.065 -3.524,-0.557 -6.549,-1.093 z m 226.096,-6.687 c -1.106,-3.623 -1.692,-6.872 -1.303,-7.22 0.869,-0.78 11.94,-4.881 13.174,-4.881 0.789,0 2.665,5.414 4.54,13.098 0.618,2.535 0.453,2.634 -6.884,4.093 l -7.517,1.496 z m 22.904,-22.101 -3.693,-4 -40.403,0.038 -40.404,0.037 -24.612,-25.087 -24.612,-25.087 -81.388,14.182 c -76.24,13.286 -81.731,14.112 -86.815,13.065 -10.274,-2.114 -17.908,-9.585 -20.183,-19.75 -2.221,-9.925 1.942,-20.473 10.329,-26.164 C 55.175,98.014025 222.385,1.7840253 226.39,0.71302525 c 8.2,-2.19299995 12.156,-0.617 59.205,23.59999975 l 43.873,22.582 h 22.373 l 0.66,-3.008 c 0.364,-1.655 1.495,-3.455 2.515,-4 1.147,-0.614 19.208,-0.992 47.418,-0.992 H 448 v 16 H 400 V 166.89503 h 48 v 16 h -89.307 z m 29,-68 V 54.895025 H 368 V 166.89503 h 16 z m -32,0 V 62.895025 h -23.597 l -12.952,-6.83 c -40.293,-21.254 -80.453,-41.17 -83.01,-41.17 -3.429,0 -180.59,102.947005 -182.943,106.306005 -0.824,1.177 -1.498,3.874 -1.498,5.994 0,5.111 4.331,9.696 9.173,9.711 3.223,0.01 148.916,-24.937 149.733,-25.64 0.223,-0.19 -1.94,-2.827 -4.806,-5.858 -7.189,-7.600005 -9.505,-13.098005 -9.486,-22.512005 0.024,-11.75 5.389,-20.916 15.53,-26.534 4.825,-2.672 6.249,-2.966 14.356,-2.966 12.92,0 14.746,1.225 41.047,27.547 l 21.91,21.927005 -5.457,5.525 -5.457,5.526 -21.522,-21.407005 c -11.836,-11.774 -22.504,-21.905 -23.705,-22.513 -3.47,-1.757 -10.46,-1.315 -14.075,0.889 -6.841,4.17 -9.414,13.975 -5.38,20.505 1.019,1.65 16.135,17.512005 33.592,35.250005 l 31.74,32.25 H 352 Z m -235.25,66.385 c -3.712,-1.877 -6.749,-3.744 -6.747,-4.149 0.002,-0.646 6.617,-12.11 7.573,-13.123 0.2,-0.213 3.277,1.51 6.836,3.83 l 6.472,4.216 -2.812,4.67 c -1.546,2.57 -3.208,5.413 -3.692,6.32 -0.783,1.466 -1.622,1.273 -7.63,-1.764 z" />
  <style>
    @keyframes pump {
      0%, 100% {
        transform: scale(1);
      }
      60% {
        transform: scale(0.8);
      }
    }

    #heart {
      transform-origin: center;
      animation: 3s ease 0s infinite pump;
    }
  </style>
</svg>
